<?xml version="1.0" standalone="no"?>
<!DOCTYPE svg PUBLIC "-//W3C//DTD SVG 20010904//EN"
 "http://www.w3.org/TR/2001/REC-SVG-20010904/DTD/svg10.dtd">
<svg version="1.0" xmlns="http://www.w3.org/2000/svg"
 width="1024.000000pt" height="1024.000000pt" viewBox="0 0 1024.000000 1024.000000"
 preserveAspectRatio="xMidYMid meet">

<g transform="translate(0.000000,1024.000000) scale(0.100000,-0.100000)"
fill="#000000" stroke="none">
<path d="M0 5120 l0 -5120 5120 0 5120 0 0 5120 0 5120 -5120 0 -5120 0 0
-5120z m5081 3872 c253 -121 312 -460 115 -657 -53 -53 -141 -105 -178 -105
-17 0 -18 -38 -18 -665 l0 -665 -78 0 -79 0 -6 308 c-4 169 -7 467 -7 662 l0
356 -47 13 c-179 47 -300 247 -272 446 21 153 122 273 273 327 81 29 212 20
297 -20z m2004 -300 l170 -98 3 -378 c1 -208 6 -376 10 -374 4 2 65 36 135 76
l127 73 2 192 3 192 160 97 c88 54 168 98 178 98 26 0 353 -195 361 -215 3 -9
6 -99 6 -201 l0 -184 -41 -30 c-23 -16 -97 -62 -165 -102 l-124 -72 -2 -180
-3 -180 -115 -69 c-256 -155 -555 -327 -568 -327 -14 0 -97 48 -452 262 -118
72 -221 137 -227 146 -19 23 -19 1140 0 1166 20 28 320 205 347 206 14 0 102
-44 195 -98z m-1200 52 c25 -10 47 -62 40 -95 -13 -58 -105 -75 -140 -26 -46
66 23 150 100 121z m-3625 -73 l0 -69 -110 -4 c-157 -4 -154 1 -160 -221 -5
-158 -7 -175 -28 -209 -13 -21 -41 -48 -63 -61 l-39 -23 35 -17 c19 -9 47 -36
62 -59 27 -42 28 -48 33 -215 6 -222 2 -216 161 -221 l110 -4 -2 -65 -2 -65
-141 4 c-168 4 -205 17 -246 89 -24 42 -25 54 -28 219 -2 96 -8 187 -13 201
-13 32 -47 49 -99 49 l-40 0 0 85 0 85 40 0 c46 0 86 16 96 39 4 9 10 102 14
206 9 300 29 320 313 324 l107 1 0 -69z m573 50 c13 -5 37 -21 55 -36 50 -42
62 -100 62 -293 l0 -164 28 -27 c16 -17 43 -30 67 -34 l40 -6 -3 -81 -4 -80
-31 0 c-19 0 -45 -10 -62 -24 l-30 -24 -6 -189 c-3 -103 -10 -199 -16 -213
-28 -64 -116 -110 -210 -110 l-44 0 3 66 3 66 39 4 c68 6 70 13 76 212 6 200
13 224 80 270 42 29 50 42 24 42 -26 0 -81 63 -93 105 -6 22 -11 108 -11 191
0 176 -6 191 -78 201 l-43 6 2 70 2 69 64 -6 c35 -4 74 -11 86 -15z m1315
-247 c65 -73 -33 -175 -110 -114 -47 36 -41 107 11 136 33 18 70 10 99 -22z
m-538 -14 c19 -19 20 -33 20 -452 0 -352 3 -438 14 -460 8 -15 61 -71 117
-125 256 -243 450 -439 455 -460 16 -62 -33 -108 -87 -81 -15 7 -165 148 -333
313 l-306 301 0 466 c0 456 0 466 21 492 25 32 70 35 99 6z m2345 -334 c29
-44 208 -521 207 -551 -1 -36 -196 -544 -217 -564 -18 -18 -69 -19 -89 -1 -32
26 -17 80 113 408 l60 152 -90 237 c-49 130 -93 249 -96 264 -8 44 19 79 62
79 25 0 39 -6 50 -24z m-327 -58 c7 -7 12 -31 12 -55 0 -36 -3 -43 -19 -43
-43 0 -51 -24 -51 -155 0 -68 -5 -136 -11 -152 -12 -34 -58 -83 -76 -83 -22 0
-15 -15 16 -33 53 -31 71 -87 71 -221 0 -128 6 -150 45 -160 24 -6 26 -10 23
-54 l-3 -47 -52 0 c-37 1 -61 7 -80 21 -48 35 -57 67 -63 222 -5 142 -5 144
-33 168 -16 14 -41 24 -58 24 l-29 0 0 69 0 69 39 7 c69 11 75 27 81 194 6
168 14 190 83 222 48 21 88 24 105 7z m-1387 -151 c89 -59 86 -172 -4 -227
-124 -76 -262 102 -159 205 50 51 109 59 163 22z m4286 -161 c36 -31 31 -42
-86 -179 -76 -88 -97 -107 -119 -107 -35 0 -52 17 -52 51 0 19 25 57 86 131
119 143 123 145 171 104z m-4073 -458 c34 -48 7 -108 -48 -108 -39 0 -68 28
-68 65 0 60 83 90 116 43z m-1830 -160 c51 -16 119 -82 136 -133 15 -47 8
-134 -16 -173 l-17 -29 39 -36 c29 -26 190 -165 212 -182 6 -5 -70 -115 -79
-115 -4 0 -38 35 -76 77 -37 42 -91 101 -119 131 l-50 55 -86 1 c-79 1 -90 4
-129 31 -133 94 -113 297 36 366 47 22 92 24 149 7z m758 -18 c28 -28 30 -35
25 -78 l-5 -47 81 -77 82 -77 -52 -1 c-50 0 -53 1 -98 55 -38 43 -54 55 -77
55 -43 0 -83 25 -102 64 -19 41 -20 53 -2 85 32 57 102 67 148 21z m4977 -25
c58 -49 64 -133 13 -187 -29 -32 -83 -52 -115 -44 -18 4 -61 -34 -249 -219
-125 -123 -239 -231 -253 -241 -24 -16 -57 -17 -335 -15 l-309 2 -138 -130
-138 -131 -16 58 -17 57 116 117 c64 65 131 125 148 133 26 12 85 15 331 15
l298 0 225 225 c201 202 224 228 222 254 -4 36 19 82 54 110 40 32 123 29 163
-4z m-6466 -57 c34 -18 46 -39 47 -81 0 -72 -79 -113 -138 -71 -88 61 -3 203
91 152z m4763 -99 c105 -98 49 -259 -91 -259 -80 0 -135 51 -143 131 -6 63 12
104 57 135 49 34 137 31 177 -7z m-454 -360 c181 -38 334 -195 368 -378 6 -34
10 -439 10 -1080 0 -874 -3 -1035 -15 -1089 -42 -177 -164 -313 -326 -363 -58
-18 -113 -19 -1397 -19 -1451 0 -1411 -1 -1523 55 -72 37 -160 123 -198 195
-62 115 -61 94 -61 1220 0 1115 0 1098 57 1217 50 104 188 216 299 242 59 14
2720 14 2786 0z m-4310 -236 c34 -20 68 -79 68 -118 0 -34 -24 -78 -55 -103
l-25 -20 0 -237 0 -237 252 -259 253 -259 183 0 183 0 -3 -55 -3 -55 -477 0
-478 0 -19 -39 c-80 -156 -302 -139 -359 28 -54 155 111 301 263 232 37 -16
85 -62 110 -105 9 -15 33 -16 235 -14 l225 3 -185 194 c-102 106 -209 220
-237 253 l-53 59 0 246 0 245 -25 20 c-56 43 -70 116 -35 173 37 60 122 82
182 48z m6630 -30 c45 -41 48 -37 -544 -630 -309 -309 -560 -564 -558 -566 3
-3 222 -7 488 -10 l482 -5 20 39 c11 21 39 51 62 66 36 24 52 28 113 28 63 0
76 -3 109 -29 99 -75 101 -236 3 -310 -94 -72 -238 -39 -293 67 l-15 27 -489
0 c-270 0 -490 -3 -490 -6 0 -3 251 -258 557 -565 306 -307 560 -565 565 -571
27 -44 -8 -96 -57 -84 -13 3 -291 277 -621 611 l-598 605 -213 0 -213 0 0 65
0 65 208 0 208 0 90 93 c49 50 320 325 602 610 542 547 537 543 584 500z
m-6036 -9 c43 -20 79 -90 69 -134 -4 -17 -22 -46 -41 -64 l-34 -33 0 -149 0
-149 135 -142 135 -141 -2 -46 c-1 -25 -5 -46 -8 -46 -8 0 -303 300 -328 333
-20 28 -21 37 -16 185 l6 157 -31 17 c-39 22 -65 78 -56 124 7 38 54 91 88 97
41 8 49 7 83 -9z m5058 -300 c39 -40 37 -103 -5 -138 -51 -43 -116 -29 -144
31 -45 93 76 179 149 107z m-447 -346 c13 -12 23 -32 23 -45 0 -29 -42 -73
-68 -73 -33 0 -72 38 -72 71 0 61 71 90 117 47z m1305 -119 c37 -50 -20 -117
-77 -91 -46 21 -52 86 -11 115 22 15 69 2 88 -24z m-5652 -895 l0 -67 -102
-106 c-56 -58 -215 -219 -352 -357 l-249 -252 12 -32 c17 -50 13 -94 -11 -130
-37 -53 -72 -74 -126 -74 -93 0 -156 63 -156 156 0 84 62 143 150 143 l55 0
168 170 c92 94 264 270 382 393 117 122 217 222 221 222 4 0 8 -30 8 -66z
m-516 -30 c22 -21 20 -60 -4 -84 -24 -24 -48 -25 -78 -4 -28 19 -31 78 -4 93
26 15 69 13 86 -5z m4889 -84 c51 -57 23 -156 -49 -174 -64 -17 -134 38 -134
104 0 99 116 143 183 70z m1327 -10 c24 -24 26 -63 4 -84 -22 -23 -81 -21 -94
3 -36 69 36 135 90 81z m-6617 -212 c37 -44 6 -111 -51 -111 -70 0 -99 80 -45
123 32 25 69 20 96 -12z m5741 -289 c19 -15 26 -30 26 -54 0 -36 -36 -75 -70
-75 -33 0 -70 39 -70 73 0 37 7 49 35 65 29 17 49 15 79 -9z m-738 -81 c20
-24 179 -191 352 -371 236 -246 319 -326 331 -321 84 35 176 16 237 -49 86
-90 85 -216 -2 -303 -50 -51 -98 -68 -174 -62 -106 8 -186 85 -197 191 -4 40
-1 64 11 88 l17 33 -331 331 c-181 182 -330 337 -330 345 0 8 9 45 19 82 11
36 17 69 13 72 -3 3 -1 6 5 6 6 0 28 -19 49 -42z m-4086 -78 c55 -55 -24 -136
-82 -83 -25 23 -23 68 4 87 30 21 54 20 78 -4z m5244 -271 c60 -47 12 -136
-59 -109 -54 21 -56 98 -3 120 32 12 32 12 62 -11z m-4977 -54 c23 -16 42 -33
43 -36 0 -3 -71 -66 -157 -140 l-158 -134 23 -45 c57 -113 7 -251 -113 -306
-159 -75 -336 40 -335 218 1 69 27 125 80 171 67 57 161 74 236 42 l36 -15
147 140 c80 76 148 138 151 137 3 -1 24 -15 47 -32z m2243 -255 l0 -200 298 0
297 0 172 173 173 172 70 -3 c66 -3 70 -5 70 -28 0 -28 -41 -58 -68 -50 -14 5
-55 -30 -175 -151 l-158 -157 321 -321 320 -320 49 3 c93 7 151 -49 151 -145
0 -41 -5 -58 -27 -84 -100 -118 -270 -41 -261 119 l3 49 -319 327 -318 326
-299 0 -299 0 0 -308 0 -309 74 -37 c266 -131 269 -490 4 -627 -66 -35 -203
-39 -282 -8 -73 27 -148 94 -184 164 -38 73 -43 206 -11 290 31 84 113 164
197 195 l62 23 0 553 0 554 70 0 70 0 0 -200z m-580 127 c0 -29 -26 -58 -250
-282 l-250 -250 0 -288 0 -288 30 -25 c58 -49 58 -139 -1 -188 -39 -33 -113
-36 -151 -6 -59 46 -63 144 -9 192 l31 28 0 300 c0 241 3 306 14 329 8 15 114
125 235 243 174 171 221 222 221 242 0 25 2 26 65 26 l65 0 0 -33z m2068 -5
c30 -38 2 -102 -45 -102 -51 0 -83 70 -45 102 33 30 65 30 90 0z m-2748 -20
c0 -5 -11 -14 -24 -21 -18 -10 -29 -10 -45 -2 -34 19 -24 31 24 31 25 0 45 -4
45 -8z m-416 -144 c38 -35 39 -84 1 -119 l-25 -24 0 -258 0 -259 -54 -56 c-52
-54 -55 -56 -82 -44 l-27 13 56 57 57 58 0 239 0 239 -32 26 c-26 22 -32 34
-32 65 0 72 84 111 138 63z m-1624 -98 c44 -44 9 -130 -54 -130 -65 0 -97 71
-55 124 26 33 79 36 109 6z m6507 -122 c50 -47 12 -138 -57 -138 -68 0 -105
87 -58 137 28 30 83 31 115 1z m-1648 -173 c14 -14 18 -66 6 -85 -24 -38 -99
-28 -115 15 -26 68 56 120 109 70z m-2149 -175 c51 -51 -11 -141 -73 -109 -29
16 -37 28 -37 63 0 60 68 88 110 46z m3491 4 c11 -13 -49 -77 -454 -481 -410
-411 -468 -465 -482 -453 -9 7 -15 19 -13 27 4 18 910 923 924 923 6 0 17 -7
25 -16z m-5133 -180 c51 -58 12 -144 -66 -144 -70 0 -109 62 -78 126 28 59
100 68 144 18z m4271 -50 c26 -33 26 -55 4 -82 -30 -35 -68 -38 -97 -8 -31 30
-33 69 -6 96 29 29 74 26 99 -6z m-1349 -24 c41 -41 13 -110 -45 -110 -49 0
-72 29 -65 80 6 48 74 66 110 30z m-3588 -169 l173 -179 409 -10 408 -11 38
40 c48 51 96 54 141 10 89 -90 -33 -227 -130 -146 l-30 26 -428 8 c-235 5
-435 12 -444 16 -23 9 -369 372 -369 388 0 18 21 37 41 37 9 0 95 -81 191
-179z m6009 157 c11 -20 -8 -40 -246 -275 -161 -159 -263 -252 -272 -249 -42
17 -25 39 228 292 140 140 259 254 266 254 7 0 17 -10 24 -22z m-6398 -356
c37 -32 5 -102 -47 -102 -67 0 -85 96 -23 119 25 9 44 5 70 -17z m4209 -113
c51 -68 -45 -144 -106 -83 -21 20 -20 73 1 96 25 27 80 21 105 -13z"/>
<path d="M6762 8666 c-72 -44 -130 -85 -129 -90 4 -12 255 -156 270 -155 19 0
260 143 260 153 -1 5 -61 46 -135 91 l-134 82 -132 -81z"/>
<path d="M7058 8446 l-127 -71 -3 -365 c-2 -201 -3 -366 -3 -367 0 -1 62 35
138 79 l138 81 -3 359 c-1 197 -5 357 -8 357 -3 -1 -62 -33 -132 -73z"/>
<path d="M7742 8439 l-133 -81 138 -80 137 -81 41 23 c136 77 225 132 224 138
0 7 -246 155 -264 159 -5 2 -70 -34 -143 -78z"/>
<path d="M6599 8014 c-1 -275 -2 -517 -3 -538 l-1 -39 294 -179 c162 -98 296
-178 298 -178 2 0 2 73 1 161 l-3 161 -145 84 c-80 46 -153 93 -162 105 -16
19 -18 54 -18 403 l0 381 -113 62 c-61 34 -120 65 -129 69 -17 6 -18 -22 -19
-492z"/>
<path d="M7590 8142 l0 -158 123 -71 c67 -39 123 -70 123 -69 1 0 4 70 7 154
5 148 4 153 -16 166 -12 8 -70 41 -129 75 l-108 60 0 -157z"/>
<path d="M8033 8218 l-123 -72 0 -153 c0 -84 3 -153 8 -153 4 0 61 32 127 70
66 39 122 70 125 70 3 0 5 70 5 155 0 97 -4 155 -10 155 -5 -1 -65 -33 -132
-72z"/>
<path d="M7345 7819 c-116 -66 -250 -143 -298 -171 -77 -45 -86 -52 -70 -63
46 -31 234 -135 245 -135 10 0 547 295 591 325 16 11 2 22 -112 89 -71 42
-133 76 -138 76 -4 0 -103 -54 -218 -121z"/>
<path d="M7550 7556 l-285 -162 -3 -152 c-1 -84 0 -152 4 -152 11 0 574 342
574 349 4 78 4 281 0 281 -3 -1 -133 -74 -290 -164z"/>
<path d="M3458 6296 c-39 -17 -86 -64 -111 -111 l-22 -40 0 -1030 c0 -986 1
-1031 19 -1065 26 -49 55 -79 101 -103 l40 -22 1304 -3 c1451 -3 1373 -6 1451
64 80 72 75 2 74 1144 -1 1119 2 1052 -65 1119 -65 65 29 61 -1431 60 -1019 0
-1339 -3 -1360 -13z m669 -365 c76 -63 731 -715 765 -761 57 -75 61 -67 -154
-286 -274 -280 -625 -612 -671 -635 -55 -29 -89 -18 -158 50 -59 57 -76 92
-65 135 3 14 145 161 333 345 l328 321 -80 82 c-44 46 -186 190 -315 320 -129
131 -243 253 -252 270 -10 18 -18 49 -18 69 0 30 7 43 41 74 51 46 92 64 146
65 36 0 50 -7 100 -49z m1583 -1156 c44 -23 64 -69 65 -147 0 -82 -19 -107
-92 -119 -54 -9 -543 -10 -586 -2 -49 10 -83 52 -90 111 -8 71 9 120 52 149
33 23 38 23 328 23 243 0 299 -3 323 -15z"/>
</g>
</svg>
